<svg width="35" height="35" viewBox="0 0 35 35" fill="none" xmlns="http://www.w3.org/2000/svg">
<path fill-rule="evenodd" clip-rule="evenodd" d="M16.4708 0.156131C15.5845 0.459769 5.70225 3.06101 4.92254 3.19598C4.68863 3.23641 4.37399 3.39116 4.22322 3.53994C3.87037 3.88813 3.89041 4.04778 4.61484 6.66499C4.92716 7.79336 5.18266 8.77937 5.18266 8.8561C5.18266 9.08692 5.83947 9.55857 6.15477 9.55401C6.31666 9.55172 6.8456 9.43446 7.33017 9.2934C7.81474 9.15234 8.22441 9.0491 8.2406 9.06399C8.26858 9.08975 9.70708 14.3304 9.94573 15.2762C10.0544 15.7067 9.98857 15.9014 8.18014 20.4926C7.14703 23.1156 5.85368 26.4009 5.30612 27.793C4.51242 29.8112 4.3306 30.3761 4.4089 30.5795C4.52134 30.8711 4.92452 31.1855 8.02706 33.4012L10.2658 35L10.7803 34.8348C11.2664 34.6788 12.8248 34.2668 23.5741 31.452C26.0273 30.8096 28.0885 30.2299 28.1547 30.1638C28.2209 30.0976 28.9059 28.6359 29.6769 26.9155C30.8121 24.3825 31.0616 23.7366 30.9882 23.5205C30.9371 23.3698 30.3143 22.7911 29.5592 22.1928C17.8508 12.9144 18.5511 13.4926 18.4278 13.0035C18.3645 12.7523 17.9615 11.2537 17.5323 9.67322C17.103 8.09276 16.7629 6.79138 16.7766 6.78128C16.7901 6.77117 17.1729 6.67597 17.6272 6.56969C19.5334 6.12368 19.5464 6.07891 18.6877 2.92908C18.4188 1.94285 18.1673 0.997274 18.1288 0.827742C18.0302 0.393694 17.5907 -0.00622961 17.2192 7.35257e-05C17.0499 0.00289907 16.7131 0.0731035 16.4708 0.156131ZM16.0359 3.63199C16.1237 3.83923 16.1955 4.05386 16.1955 4.10885C16.1955 4.16384 15.7372 4.32012 15.1768 4.45607C13.4138 4.88381 13.4172 4.87534 14.0749 7.27607C14.3451 8.2623 14.9275 10.4058 15.369 12.0394C15.9493 14.1857 16.2287 15.0488 16.3765 15.1513C16.4889 15.2293 17.5558 16.069 18.7472 17.0171C19.9387 17.9654 21.2477 18.9858 21.6561 19.2846C22.0646 19.5835 22.3944 19.8769 22.3892 19.9367C22.372 20.1301 20.902 20.4355 19.9399 20.4453C18.7937 20.4571 18.3964 20.3484 16.6001 19.5309C14.8537 18.7361 14.1921 18.5986 12.9663 18.776C12.471 18.8478 11.9534 18.9363 11.8159 18.9729C11.5729 19.0375 11.5767 19.0151 11.9601 18.1295C12.1767 17.6292 12.475 16.9079 12.6232 16.5268L12.8923 15.8337L12.0652 12.7775C10.1705 5.77766 10.3197 6.26094 9.99715 6.08217C9.7269 5.93253 9.60884 5.94339 8.57484 6.21236C7.72333 6.43384 7.42664 6.47362 7.36288 6.37472C7.22676 6.16346 7.26266 5.57401 7.41949 5.44566C7.54922 5.33938 9.76368 4.71808 13.8278 3.64764C15.7028 3.15382 15.8331 3.15284 16.0359 3.63199ZM22.0036 21.7428C22.9076 22.1739 23.6843 23.3731 23.6843 24.338C23.6843 25.3122 22.9216 26.4986 21.9957 26.9647C20.6453 27.6446 18.8959 27.0949 18.132 25.7508C17.8356 25.229 17.7927 25.0495 17.7949 24.338C17.798 23.3486 18.0348 22.8377 18.7964 22.176C19.7002 21.3911 20.9204 21.2262 22.0036 21.7428ZM14.3668 22.2568C14.9118 22.5634 15.1493 22.9808 15.1493 23.6316C15.1493 24.2856 14.9333 24.6626 14.3244 25.0716C13.0314 25.94 11.3385 24.4516 11.9843 23.014C12.2305 22.4661 12.4084 22.3019 12.9733 22.1013C13.4348 21.9373 13.8892 21.988 14.3668 22.2568ZM20.0501 22.7154C19.0335 23.1372 18.6523 24.3088 19.2203 25.2652C19.865 26.3509 21.378 26.3589 22.1874 25.281C22.3595 25.0518 22.4178 24.8133 22.4178 24.338C22.4178 23.656 22.2371 23.3031 21.6759 22.8896C21.3413 22.6432 20.4534 22.548 20.0501 22.7154ZM13.1748 23.3133C12.8422 23.6416 13.0336 24.1207 13.4974 24.1207C13.9812 24.1207 14.1926 23.473 13.78 23.2551C13.4905 23.1023 13.3778 23.1131 13.1748 23.3133ZM16.8153 25.9812C17.3862 26.5105 17.1975 27.4687 16.4626 27.7717C16.006 27.9599 15.6345 27.8844 15.2758 27.5305C14.2581 26.5263 15.7662 25.0087 16.8153 25.9812Z" fill="#0E2440"/>
</svg>
